<svg
  t="1680078905507"
  viewBox="0 0 1024 1024"
  version="1.1"
  xmlns="http://www.w3.org/2000/svg"
  p-id="2791"
  width="48"
  height="48"
>
  <path
    d="M512 860.8C320 860.8 163.2 704 163.2 512S320 163.2 512 163.2 860.8 320 860.8 512 704 860.8 512 860.8z m172.8-272c-9.6-6.4-19.2-9.6-32-12.8-28.8-6.4-64-9.6-86.4-38.4 0 0-12.8-12.8 16-44.8 28.8-32 28.8-83.2 22.4-121.6-6.4-38.4-44.8-64-86.4-64-41.6 0-80 25.6-86.4 64-6.4 38.4-3.2 89.6 22.4 121.6 28.8 32 16 44.8 16 44.8-22.4 28.8-57.6 32-86.4 38.4-12.8 3.2-22.4 6.4-32 12.8-19.2 9.6-9.6 96-9.6 96h348.8c-6.4 0 0-83.2-6.4-96z"
    fill="#606060"
    p-id="2792"
  ></path>
</svg>
